<svg width="24" height="24" viewBox="0 0 24 24" fill="none" xmlns="http://www.w3.org/2000/svg">
<path d="M14.3609 9.3168L12.4758 3.47472C12.3268 3.01277 11.6732 3.01277 11.5242 3.47471L9.63911 9.3168C9.58974 9.46981 9.46981 9.58974 9.3168 9.63911L3.47472 11.5242C3.01277 11.6732 3.01277 12.3268 3.47471 12.4758L9.3168 14.3609C9.46981 14.4103 9.58974 14.5302 9.63911 14.6832L11.5242 20.5253C11.6732 20.9872 12.3268 20.9872 12.4758 20.5253L14.3609 14.6832C14.4103 14.5302 14.5302 14.4103 14.6832 14.3609L20.5253 12.4758C20.9872 12.3268 20.9872 11.6732 20.5253 11.5242L14.6832 9.63911C14.5302 9.58974 14.4103 9.46981 14.3609 9.3168Z" fill="url(#paint0_linear_523_15)"/>
<path d="M17.364 7C17.3 7 17.238 6.982 17.178 6.946C17.12 6.91 17.073 6.853 17.037 6.775C17.001 6.697 16.983 6.597 16.983 6.475C16.983 6.375 16.995 6.263 17.019 6.139C17.043 6.013 17.074 5.887 17.112 5.761C17.152 5.635 17.195 5.521 17.241 5.419C17.103 5.511 16.982 5.638 16.878 5.8C16.774 5.962 16.684 6.15 16.608 6.364C16.624 6.428 16.637 6.488 16.647 6.544C16.657 6.6 16.662 6.651 16.662 6.697C16.662 6.785 16.641 6.854 16.599 6.904C16.557 6.954 16.484 6.979 16.38 6.979C16.288 6.979 16.22 6.959 16.176 6.919C16.134 6.877 16.113 6.819 16.113 6.745C16.113 6.697 16.121 6.642 16.137 6.58C16.155 6.518 16.18 6.451 16.212 6.379C16.176 6.273 16.132 6.154 16.08 6.022C16.028 5.888 15.955 5.742 15.861 5.584C15.833 5.702 15.804 5.82 15.774 5.938C15.746 6.054 15.722 6.162 15.702 6.262C15.684 6.36 15.675 6.443 15.675 6.511C15.675 6.621 15.705 6.676 15.765 6.676L15.771 6.682C15.771 6.748 15.754 6.805 15.72 6.853C15.688 6.899 15.646 6.935 15.594 6.961C15.544 6.985 15.491 6.997 15.435 6.997C15.381 6.997 15.328 6.984 15.276 6.958C15.226 6.932 15.185 6.892 15.153 6.838C15.121 6.782 15.105 6.711 15.105 6.625C15.105 6.543 15.119 6.454 15.147 6.358C15.177 6.26 15.214 6.161 15.258 6.061C15.302 5.959 15.347 5.86 15.393 5.764C15.439 5.666 15.48 5.575 15.516 5.491C15.554 5.405 15.579 5.33 15.591 5.266C15.551 5.238 15.508 5.224 15.462 5.224C15.424 5.224 15.385 5.237 15.345 5.263C15.307 5.287 15.271 5.328 15.237 5.386L15.216 5.377C15.218 5.275 15.24 5.182 15.282 5.098C15.324 5.012 15.379 4.944 15.447 4.894C15.517 4.842 15.593 4.816 15.675 4.816C15.769 4.816 15.866 4.857 15.966 4.939C16.066 5.021 16.158 5.156 16.242 5.344C16.328 5.532 16.397 5.786 16.449 6.106C16.525 5.86 16.607 5.654 16.695 5.488C16.783 5.322 16.873 5.19 16.965 5.092C17.059 4.994 17.151 4.924 17.241 4.882C17.333 4.838 17.42 4.816 17.502 4.816C17.604 4.816 17.695 4.841 17.775 4.891C17.857 4.941 17.921 5.004 17.967 5.08C18.015 5.156 18.039 5.232 18.039 5.308C17.989 5.294 17.939 5.284 17.889 5.278C17.841 5.272 17.794 5.269 17.748 5.269C17.702 5.269 17.658 5.272 17.616 5.278C17.598 5.37 17.579 5.473 17.559 5.587C17.539 5.699 17.521 5.812 17.505 5.926C17.491 6.04 17.484 6.145 17.484 6.241C17.484 6.339 17.494 6.419 17.514 6.481C17.534 6.543 17.569 6.574 17.619 6.574C17.651 6.574 17.683 6.56 17.715 6.532C17.749 6.504 17.774 6.461 17.79 6.403L17.811 6.412C17.811 6.544 17.789 6.654 17.745 6.742C17.701 6.828 17.644 6.893 17.574 6.937C17.506 6.979 17.436 7 17.364 7ZM18.7519 7.018C18.6259 7.018 18.5169 6.993 18.4249 6.943C18.3349 6.891 18.2599 6.821 18.1999 6.733C18.1419 6.643 18.0989 6.542 18.0709 6.43C18.0449 6.316 18.0339 6.198 18.0379 6.076C18.0459 5.858 18.0859 5.67 18.1579 5.512C18.2299 5.354 18.3209 5.224 18.4309 5.122C18.5409 5.02 18.6589 4.945 18.7849 4.897C18.9129 4.847 19.0359 4.822 19.1539 4.822C19.2539 4.822 19.3439 4.839 19.4239 4.873C19.5059 4.905 19.5709 4.953 19.6189 5.017C19.6669 5.079 19.6909 5.155 19.6909 5.245C19.6909 5.315 19.6699 5.383 19.6279 5.449C19.5879 5.513 19.5259 5.566 19.4419 5.608C19.3599 5.648 19.2539 5.668 19.1239 5.668C19.1459 5.604 19.1619 5.548 19.1719 5.5C19.1819 5.452 19.1869 5.411 19.1869 5.377C19.1869 5.307 19.1709 5.26 19.1389 5.236C19.1069 5.21 19.0669 5.197 19.0189 5.197C18.9609 5.197 18.9059 5.218 18.8539 5.26C18.8019 5.302 18.7549 5.359 18.7129 5.431C18.6729 5.501 18.6409 5.579 18.6169 5.665C18.5929 5.751 18.5789 5.838 18.5749 5.926C18.5669 6.148 18.5989 6.316 18.6709 6.43C18.7429 6.544 18.8359 6.601 18.9499 6.601C19.0379 6.601 19.1349 6.565 19.2409 6.493C19.3489 6.421 19.4549 6.312 19.5589 6.166L19.5979 6.184C19.5719 6.364 19.5149 6.516 19.4269 6.64C19.3389 6.764 19.2349 6.858 19.1149 6.922C18.9969 6.986 18.8759 7.018 18.7519 7.018ZM20.0738 7.012C20.0058 7.012 19.9448 6.987 19.8908 6.937C19.8368 6.885 19.8098 6.798 19.8098 6.676C19.8098 6.596 19.8208 6.507 19.8428 6.409C19.8668 6.311 19.8948 6.21 19.9268 6.106C19.9608 6 19.9948 5.898 20.0288 5.8C20.0628 5.702 20.0908 5.613 20.1128 5.533C20.1348 5.453 20.1458 5.39 20.1458 5.344C20.1458 5.29 20.1248 5.263 20.0828 5.263C20.0328 5.263 19.9858 5.292 19.9418 5.35C19.8978 5.406 19.8488 5.485 19.7948 5.587L19.7768 5.581C19.7768 5.423 19.8188 5.286 19.9028 5.17C19.9868 5.052 20.0998 4.961 20.2418 4.897C20.3858 4.833 20.5458 4.801 20.7218 4.801C20.8998 4.801 21.0438 4.832 21.1538 4.894C21.2658 4.954 21.3478 5.033 21.3998 5.131C21.4538 5.227 21.4808 5.33 21.4808 5.44C21.4808 5.534 21.4628 5.628 21.4268 5.722C21.3928 5.814 21.3428 5.898 21.2768 5.974C21.2128 6.05 21.1368 6.111 21.0488 6.157C20.9608 6.203 20.8638 6.226 20.7578 6.226C20.6478 6.226 20.5338 6.198 20.4158 6.142C20.3898 6.24 20.3668 6.34 20.3468 6.442C20.3268 6.542 20.3168 6.645 20.3168 6.751C20.3168 6.803 20.3198 6.855 20.3258 6.907C20.2918 6.941 20.2518 6.967 20.2058 6.985C20.1618 7.003 20.1178 7.012 20.0738 7.012ZM20.5538 5.926C20.6338 5.926 20.7038 5.904 20.7638 5.86C20.8238 5.814 20.8698 5.757 20.9018 5.689C20.9358 5.619 20.9528 5.549 20.9528 5.479C20.9528 5.397 20.9258 5.324 20.8718 5.26C20.8198 5.196 20.7338 5.164 20.6138 5.164C20.5978 5.164 20.5788 5.165 20.5568 5.167C20.5368 5.169 20.5158 5.172 20.4938 5.176C20.5098 5.226 20.5198 5.276 20.5238 5.326C20.5298 5.374 20.5328 5.421 20.5328 5.467C20.5328 5.547 20.5268 5.624 20.5148 5.698C20.5028 5.772 20.4888 5.845 20.4728 5.917C20.5008 5.923 20.5278 5.926 20.5538 5.926Z" fill="#0D9488"/>
<defs>
<linearGradient id="paint0_linear_523_15" x1="14.5" y1="9.5" x2="9.5" y2="14.5" gradientUnits="userSpaceOnUse">
<stop stop-color="#2563EB"/>
<stop offset="1" stop-color="#9333EA"/>
</linearGradient>
</defs>
</svg>
